<svg width="472.44" height="86.929" viewBox="0 0 125 23"><path d="M9.168 16.163h-.083q-1.431 1.562-3.713 1.562-1.183 0-2.178-.422-.975-.422-1.7-1.181-.707-.76-1.101-1.795-.394-1.055-.394-2.32 0-1.266.395-2.342.414-1.076 1.1-1.857.703-.802 1.658-1.246.976-.443 2.095-.443 1.037 0 1.825.317.81.317 1.411 1.076h.084V5.718q0-1.244-.042-2.13-.02-.909-.083-1.182-.103-.444-.643-.633-.518-.212-1.618-.212V.845L11.43 0v12.07q0 1.582.02 2.447.043.843.125 1.287.042.274.125.444.083.168.248.273.166.085.436.127.29.02.727.02v.823l-3.942.232zm-.643-4.705q0-.802-.166-1.478-.166-.695-.498-1.223-.373-.612-.954-.928-.581-.317-1.244-.317-1.225 0-1.867 1.14-.644 1.14-.644 3.312 0 2.195.644 3.377.642 1.181 1.846 1.181.684 0 1.307-.359.622-.358 1.016-.97.29-.464.414-1.14.146-.696.146-1.772zm10.123 2.595q0 .865.04 1.372.063.485.229.76.187.274.54.358.373.085.996.127v.844h-6.534v-.844q.621-.042.995-.127.373-.084.56-.338.187-.252.229-.717.061-.485.061-1.287V5.53q0-1.266-.04-1.984-.021-.739-.105-1.118-.062-.274-.145-.422-.083-.169-.27-.253-.166-.105-.477-.127-.29-.042-.747-.042v-.78L18.607 0v7.786h.082q.643-.866 1.432-1.267.809-.4 1.93-.4 2.032 0 3.152 1.265.54.634.85 1.54.311.888.311 1.858v3.27q0 .887.042 1.393.041.485.208.76.186.253.538.337.353.085.976.127v.844h-6.493v-.844q.622-.02.974-.106.374-.105.56-.359.209-.252.25-.717.062-.485.062-1.287v-2.596q0-2.236-.477-3.165-.477-.927-1.639-.927-1.244 0-1.97.928-.353.486-.56 1.204-.188.717-.188 1.603zM35.533 11.5q-1.743.802-2.635 1.498-.87.676-.87 1.414 0 .612.332.97.33.36.829.36t.934-.169q.436-.19.746-.486.312-.295.477-.696.187-.422.187-.887zm0-1.118v-.887q0-1.223-.436-1.772-.414-.57-1.307-.57-.601 0-.912.338-.311.317-.58 1.076-.188.528-.54.823-.332.296-.934.296-.58 0-.892-.36-.31-.358-.31-1.012 0-1.013 1.078-1.603 1.1-.591 3.298-.591 2.324 0 3.32.865.995.843.995 2.848v4.622q0 1.793.705 1.793.394 0 .726-.275l.31.613q-.29.527-.911.844-.602.295-1.37.295-.954 0-1.451-.59-.499-.592-.499-1.668h-.103q-.602 1.097-1.557 1.667-.954.57-2.177.57-1.307 0-2.095-.74-.788-.759-.788-1.96 0-.929.809-1.732.809-.823 2.697-1.603zm10.123 3.862q0 .823.062 1.308.083.464.312.717.228.253.664.338.435.063 1.16.063v.844h-6.928v-.844q.623-.042.996-.127.374-.084.56-.338.186-.252.228-.717.062-.485.062-1.287v-2.575q0-1.308-.062-2.087-.061-.782-.27-1.204-.207-.422-.6-.548-.374-.148-.997-.148V6.9l4.15-.78.33 2.426h.084q.56-1.118 1.472-1.773.913-.653 1.93-.653.788 0 1.286.4.497.401.497 1.014 0 .675-.393 1.14-.374.463-1.037.463-.312 0-.56-.127-.25-.126-.457-.274-.187-.169-.394-.296-.187-.147-.394-.147-.394 0-.746.528-.353.527-.581 1.414-.167.632-.27 1.434-.104.78-.104 1.561zM57.77 11.5q-1.742.802-2.635 1.498-.871.676-.871 1.414 0 .612.332.97.332.36.83.36t.934-.169q.435-.19.747-.486.31-.295.475-.696.189-.422.189-.887zm0-1.118v-.887q0-1.223-.436-1.772-.415-.57-1.306-.57-.602 0-.912.338-.313.317-.582 1.076-.187.528-.539.823-.332.296-.934.296-.58 0-.892-.36-.31-.358-.31-1.012 0-1.013 1.078-1.603 1.099-.591 3.298-.591 2.323 0 3.319.865.996.843.996 2.848v4.622q0 1.793.705 1.793.395 0 .726-.275l.311.613q-.29.527-.912.844-.602.295-1.37.295-.954 0-1.452-.59-.498-.592-.498-1.668h-.103q-.602 1.097-1.556 1.667-.954.57-2.178.57-1.307 0-2.095-.74-.788-.759-.788-1.96 0-.929.81-1.732.807-.823 2.696-1.603zm6.368-1.33q-.228-.612-.436-.97-.206-.38-.435-.57-.207-.211-.476-.274-.25-.063-.603-.063V6.33h6.203v.845q-.519 0-.83.042-.29.041-.456.126-.146.085-.187.232-.041.127-.041.296 0 .274.103.633.104.359.249.717l1.97 5.529h.084l2.22-5.507q.145-.36.227-.633.083-.296.083-.529 0-.464-.31-.674-.312-.212-1.1-.232V6.33h4.584v.845q-.56 0-.974.295-.395.296-.83 1.308l-3.879 8.946h-1.888zm16.18 5.001q0 .844.062 1.352.062.505.25.78.186.274.54.38.351.084.953.105v.844H75.59v-.844q.58-.02.933-.127.374-.127.56-.38.209-.274.27-.738.083-.485.083-1.224v-2.596q0-1.223-.041-2.004-.042-.802-.104-1.097-.104-.528-.477-.696-.353-.17-1.307-.17v-.717l4.813-.801zm-3.05-12.406q0-.696.457-1.161Q78.203 0 78.866 0q.684 0 1.14.484.478.465.478 1.162 0 .674-.477 1.16-.456.463-1.14.463-.664 0-1.141-.464-.456-.485-.456-1.16zm6.327 14.516q0-.675.437-1.14.456-.484 1.12-.484.684 0 1.14.484.456.465.456 1.14 0 .655-.456 1.12-.456.442-1.14.442-.664 0-1.12-.443-.437-.464-.437-1.119zM94.673 6.12q1.245 0 2.343.443 1.12.422 1.95 1.18.851.76 1.328 1.816.498 1.034.498 2.28 0 1.286-.498 2.362-.477 1.077-1.327 1.856-.83.782-1.95 1.225-1.1.443-2.344.443-1.224 0-2.324-.422-1.1-.444-1.929-1.224t-1.307-1.856q-.476-1.098-.476-2.385 0-1.245.476-2.3.478-1.055 1.307-1.815.83-.76 1.93-1.182 1.099-.421 2.323-.421zm0 1.223q-.622 0-1.14.338-.52.317-.893.908-.353.59-.56 1.434-.187.823-.187 1.835 0 1.056.187 1.9.208.844.56 1.435.374.59.871.928.519.316 1.162.316.643 0 1.162-.315.539-.338.912-.928.374-.613.58-1.458.209-.843.209-1.878 0-1.012-.208-1.835-.207-.823-.581-1.413-.373-.612-.912-.93-.519-.337-1.162-.337zm12.239 6.9q0 .824.062 1.309.082.464.311.717.228.253.664.338.436.063 1.162.063v.844h-6.929v-.844q.622-.042.996-.127.373-.084.56-.338.186-.252.228-.717.062-.485.062-1.287v-2.575q0-1.308-.062-2.087-.063-.782-.27-1.204-.208-.422-.602-.548-.372-.148-.995-.148V6.9l4.148-.78.332 2.426h.084q.56-1.118 1.472-1.773.912-.653 1.93-.653.788 0 1.286.4.497.401.497 1.014 0 .675-.393 1.14-.374.463-1.037.463-.312 0-.56-.127-.25-.126-.457-.274-.187-.169-.394-.296-.187-.147-.395-.147-.394 0-.747.528-.352.527-.58 1.414-.166.632-.27 1.434-.103.78-.103 1.561zm9.708.992q.56.043.974.085.436.041.81.105.394.042.766.106.395.042.83.105 1.619.232 2.532 1.245.933.992.933 2.47 0 1.792-1.452 2.72-1.452.93-4.273.93-2.593 0-4.004-.781-1.39-.76-1.39-2.174 0-1.097.56-1.667.56-.549 1.411-.549.54 0 1.037.212.519.232.872.654-.54.106-.893.485-.332.401-.332.928 0 .845.726 1.288.748.464 2.178.464 3.112 0 3.112-2.005 0-.718-.476-1.245-.457-.506-1.329-.611l-3.63-.508q-2.302-.315-2.302-2.087 0-.866.54-1.414.56-.55 1.576-.76v-.085q-.477-.19-.872-.527-.373-.338-.664-.78-.29-.445-.456-.95-.145-.528-.145-1.077 0-.78.311-1.455.332-.696.893-1.182.58-.486 1.348-.76.788-.295 1.7-.295.893 0 1.743.274.85.274 1.452.76.476-.296.83-.486.352-.212.643-.316.311-.127.56-.169.249-.063.498-.063.788 0 1.265.358.498.359.498.95 0 .444-.27.738-.27.274-.705.274-.311 0-.498-.126-.186-.148-.374-.316-.165-.19-.352-.317-.187-.147-.497-.147-.437 0-.83.568.207.36.29.782.083.4.083.95 0 .801-.248 1.476-.25.676-.79 1.203-.518.506-1.348.865-.83.358-2.012.485-.995.106-1.39.275-.373.168-.373.506 0 .506.933.591zm.995-2.575q.664 0 1.037-.716.374-.718.374-2.005 0-1.309-.374-2.005-.373-.717-1.058-.717-.704 0-1.12.717-.415.717-.415 1.963 0 1.266.416 2.025.435.738 1.14.738z"/></svg>