<svg width="219.99944mm" height="143.269mm" viewBox="0 0 219.99944 143.269" version="1.1" id="svg8" xmlns="http://www.w3.org/2000/svg" xmlns:svg="http://www.w3.org/2000/svg" xmlns:rdf="http://www.w3.org/1999/02/22-rdf-syntax-ns#" xmlns:cc="http://creativecommons.org/ns#" xmlns:dc="http://purl.org/dc/elements/1.1/">
  <defs id="defs2">
    <clipPath id="clipPath1667" clipPathUnits="userSpaceOnUse">
      <g transform="matrix(0.9992359,0,0,0.9992359,47.438983,38.407721)" style="font-size:2.0727px;line-height:1.35;font-family:Helvetica;-inkscape-font-specification:Helvetica;fill:#ffffff;stroke-width:0.140349" id="g1699" aria-label="CENTER OF GRAVITY">
        <path id="path1669" style="font-size:2.0727px;line-height:1.35;font-family:Helvetica;-inkscape-font-specification:Helvetica;fill:#ffffff;stroke-width:0.140349" d="m 6.5816745,68.374488 q 0.2823648,0 0.4382222,0.148773 0.1558573,0.148773 0.1730623,0.338028 H 6.9966193 q -0.033398,-0.143712 -0.133592,-0.227713 -0.099182,-0.084 -0.2793287,-0.084 -0.2196172,0 -0.3552333,0.154845 -0.134604,0.153833 -0.134604,0.472632 0,0.261112 0.1214472,0.424054 0.1224594,0.161929 0.3643418,0.161929 0.2226534,0 0.3390403,-0.171038 0.061736,-0.09007 0.092098,-0.236822 h 0.1963398 q -0.026314,0.234798 -0.1740744,0.393691 -0.1771106,0.19128 -0.4776926,0.19128 -0.2590875,0 -0.4351861,-0.156869 -0.2317618,-0.207473 -0.2317618,-0.640635 0,-0.328919 0.1740744,-0.539428 0.1882432,-0.228726 0.5191871,-0.228726 z m -0.040483,0 z"></path>
        <path id="path1671" style="font-size:2.0727px;line-height:1.35;font-family:Helvetica;-inkscape-font-specification:Helvetica;fill:#ffffff;stroke-width:0.140349" d="m 7.4722877,68.414971 h 1.0839169 v 0.182171 H 7.6686274 v 0.451379 h 0.8207812 v 0.17205 H 7.6686274 v 0.504006 h 0.9027581 v 0.177111 H 7.4722877 Z m 0.5495489,0 z"></path>
        <path id="path1673" style="font-size:2.0727px;line-height:1.35;font-family:Helvetica;-inkscape-font-specification:Helvetica;fill:#ffffff;stroke-width:0.140349" d="m 8.8375575,68.414971 h 0.2378342 l 0.750949,1.204352 V 68.414971 H 10.01762 v 1.486717 H 9.7919306 L 9.029849,68.698348 v 1.20334 H 8.8375575 Z m 0.5768745,0 z"></path>
        <path id="path1675" style="font-size:2.0727px;line-height:1.35;font-family:Helvetica;-inkscape-font-specification:Helvetica;fill:#ffffff;stroke-width:0.140349" d="m 11.4173,68.414971 v 0.17711 h -0.50097 v 1.309607 h -0.204437 v -1.309607 h -0.500969 v -0.17711 z"></path>
        <path id="path1677" style="font-size:2.0727px;line-height:1.35;font-family:Helvetica;-inkscape-font-specification:Helvetica;fill:#ffffff;stroke-width:0.140349" d="m 11.621736,68.414971 h 1.083917 v 0.182171 h -0.887577 v 0.451379 h 0.820781 v 0.17205 h -0.820781 v 0.504006 h 0.902758 v 0.177111 h -1.099098 z m 0.549549,0 z"></path>
        <path id="path1679" style="font-size:2.0727px;line-height:1.35;font-family:Helvetica;-inkscape-font-specification:Helvetica;fill:#ffffff;stroke-width:0.140349" d="m 13.678243,69.096087 q 0.141688,0 0.223665,-0.05667 0.08299,-0.05667 0.08299,-0.204436 0,-0.158894 -0.115375,-0.216581 -0.06174,-0.03036 -0.164966,-0.03036 h -0.491861 v 0.508054 z m -0.666948,-0.681116 h 0.688201 q 0.170026,0 0.280341,0.04959 0.209496,0.09513 0.209496,0.351185 0,0.133592 -0.05566,0.218605 -0.05465,0.08501 -0.153833,0.136628 0.08704,0.03542 0.130556,0.09311 0.04453,0.05769 0.04959,0.187232 l 0.0071,0.199376 q 0.003,0.08501 0.01417,0.126507 0.01822,0.07084 0.06477,0.09109 v 0.0334 h -0.246943 q -0.01012,-0.01923 -0.01619,-0.04959 -0.0061,-0.03036 -0.01012,-0.117399 l -0.01214,-0.247955 q -0.0071,-0.145737 -0.108291,-0.195328 -0.05769,-0.02733 -0.181159,-0.02733 H 13.21272 v 0.637599 h -0.2014 z"></path>
        <path id="path1681" style="font-size:2.0727px;line-height:1.35;font-family:Helvetica;-inkscape-font-specification:Helvetica;fill:#ffffff;stroke-width:0.140349" d="m 15.701352,68.374488 q 0.393692,0 0.582947,0.253015 0.147761,0.197352 0.147761,0.505019 0,0.332968 -0.169014,0.553597 -0.198364,0.259087 -0.565742,0.259087 -0.343088,0 -0.539428,-0.226701 -0.175087,-0.218605 -0.175087,-0.552585 0,-0.301594 0.149785,-0.516151 0.192292,-0.275281 0.568778,-0.275281 z m 0.02024,1.390571 q 0.266171,0 0.384583,-0.190267 0.119423,-0.191279 0.119423,-0.439234 0,-0.262124 -0.137641,-0.422029 -0.136628,-0.159906 -0.374462,-0.159906 -0.23075,0 -0.376486,0.158893 -0.145737,0.157882 -0.145737,0.46656 0,0.246943 0.124483,0.416969 0.125496,0.169014 0.405837,0.169014 z m -0.01417,-1.390571 z"></path>
        <path id="path1683" style="font-size:2.0727px;line-height:1.35;font-family:Helvetica;-inkscape-font-specification:Helvetica;fill:#ffffff;stroke-width:0.140349" d="m 16.690135,68.414971 h 1.03129 v 0.182171 h -0.82989 v 0.451379 h 0.729696 v 0.17711 h -0.729696 v 0.676057 h -0.2014 z"></path>
        <path id="path1685" style="font-size:2.0727px;line-height:1.35;font-family:Helvetica;-inkscape-font-specification:Helvetica;fill:#ffffff;stroke-width:0.140349" d="m 19.155515,68.376512 q 0.209497,0 0.362318,0.08096 0.221641,0.116387 0.271232,0.407861 h -0.199376 q -0.03643,-0.162942 -0.150797,-0.236823 -0.114363,-0.07489 -0.288437,-0.07489 -0.206461,0 -0.348149,0.154845 -0.140676,0.154845 -0.140676,0.4615 0,0.26516 0.116387,0.43215 0.116387,0.165978 0.379522,0.165978 0.2014,0 0.332968,-0.116387 0.13258,-0.117399 0.135616,-0.378511 h -0.465548 v -0.16699 h 0.652779 v 0.79548 h -0.129543 l -0.04858,-0.19128 q -0.102218,0.112339 -0.181159,0.155858 -0.13258,0.07489 -0.337016,0.07489 -0.264148,0 -0.454415,-0.171038 -0.207473,-0.214557 -0.207473,-0.589019 0,-0.373451 0.202412,-0.59408 0.192292,-0.210509 0.497934,-0.210509 z m -0.0334,-0.002 z"></path>
        <path id="path1687" style="font-size:2.0727px;line-height:1.35;font-family:Helvetica;-inkscape-font-specification:Helvetica;fill:#ffffff;stroke-width:0.140349" d="m 20.815294,69.096087 q 0.141689,0 0.223666,-0.05667 0.08299,-0.05667 0.08299,-0.204436 0,-0.158894 -0.115375,-0.216581 -0.06174,-0.03036 -0.164966,-0.03036 h -0.491861 v 0.508054 z m -0.666948,-0.681116 h 0.688202 q 0.170026,0 0.28034,0.04959 0.209497,0.09513 0.209497,0.351185 0,0.133592 -0.05566,0.218605 -0.05465,0.08501 -0.153834,0.136628 0.08704,0.03542 0.130556,0.09311 0.04453,0.05769 0.04959,0.187232 l 0.0071,0.199376 q 0.003,0.08501 0.01417,0.126507 0.01822,0.07084 0.06477,0.09109 v 0.0334 h -0.246942 q -0.01012,-0.01923 -0.01619,-0.04959 -0.0061,-0.03036 -0.01012,-0.117399 l -0.01215,-0.247955 q -0.0071,-0.145737 -0.10829,-0.195328 -0.05769,-0.02733 -0.181159,-0.02733 h -0.458463 v 0.637599 h -0.201401 z"></path>
        <path id="path1689" style="font-size:2.0727px;line-height:1.35;font-family:Helvetica;-inkscape-font-specification:Helvetica;fill:#ffffff;stroke-width:0.140349" d="M 22.385,69.292427 22.159311,68.6356 21.919452,69.292427 Z m -0.330944,-0.877456 h 0.227714 l 0.539428,1.486717 h -0.220629 l -0.150797,-0.445307 h -0.588007 l -0.160918,0.445307 h -0.20646 z"></path>
        <path id="path1691" style="font-size:2.0727px;line-height:1.35;font-family:Helvetica;-inkscape-font-specification:Helvetica;fill:#ffffff;stroke-width:0.140349" d="m 22.970477,68.414971 0.42709,1.266087 0.422029,-1.266087 h 0.225689 l -0.542464,1.486717 h -0.213545 l -0.541452,-1.486717 z"></path>
        <path id="path1693" style="font-size:2.0727px;line-height:1.35;font-family:Helvetica;-inkscape-font-specification:Helvetica;fill:#ffffff;stroke-width:0.140349" d="m 24.282614,68.414971 h 0.203424 v 1.486717 h -0.203424 z"></path>
        <path id="path1695" style="font-size:2.0727px;line-height:1.35;font-family:Helvetica;-inkscape-font-specification:Helvetica;fill:#ffffff;stroke-width:0.140349" d="m 25.893814,68.414971 v 0.17711 h -0.50097 v 1.309607 h -0.204436 v -1.309607 h -0.50097 v -0.17711 z"></path>
        <path id="path1697" style="font-size:2.0727px;line-height:1.35;font-family:Helvetica;-inkscape-font-specification:Helvetica;fill:#ffffff;stroke-width:0.140349" d="m 25.963646,68.414971 h 0.234798 l 0.427089,0.714514 0.42709,-0.714514 h 0.23581 l -0.561694,0.887577 v 0.59914 h -0.2014 v -0.59914 z m 0.664924,0 z"></path>
      </g>
    </clipPath>
    <clipPath id="clipPath1701" clipPathUnits="userSpaceOnUse">
      <g aria-label="CENTER OF GRAVITY" id="g1733" style="font-size:2.0727px;line-height:1.35;font-family:Helvetica;-inkscape-font-specification:Helvetica;fill:#ffffff;stroke-width:0.140349" transform="matrix(0,0.9992359,-0.9992359,0,133.12174,90.93898)">
        <path d="m 6.5816745,68.374488 q 0.2823648,0 0.4382222,0.148773 0.1558573,0.148773 0.1730623,0.338028 H 6.9966193 q -0.033398,-0.143712 -0.133592,-0.227713 -0.099182,-0.084 -0.2793287,-0.084 -0.2196172,0 -0.3552333,0.154845 -0.134604,0.153833 -0.134604,0.472632 0,0.261112 0.1214472,0.424054 0.1224594,0.161929 0.3643418,0.161929 0.2226534,0 0.3390403,-0.171038 0.061736,-0.09007 0.092098,-0.236822 h 0.1963398 q -0.026314,0.234798 -0.1740744,0.393691 -0.1771106,0.19128 -0.4776926,0.19128 -0.2590875,0 -0.4351861,-0.156869 -0.2317618,-0.207473 -0.2317618,-0.640635 0,-0.328919 0.1740744,-0.539428 0.1882432,-0.228726 0.5191871,-0.228726 z m -0.040483,0 z" style="font-size:2.0727px;line-height:1.35;font-family:Helvetica;-inkscape-font-specification:Helvetica;fill:#ffffff;stroke-width:0.140349" id="path1703-0"></path>
        <path d="m 7.4722877,68.414971 h 1.0839169 v 0.182171 H 7.6686274 v 0.451379 h 0.8207812 v 0.17205 H 7.6686274 v 0.504006 h 0.9027581 v 0.177111 H 7.4722877 Z m 0.5495489,0 z" style="font-size:2.0727px;line-height:1.35;font-family:Helvetica;-inkscape-font-specification:Helvetica;fill:#ffffff;stroke-width:0.140349" id="path1705"></path>
        <path d="m 8.8375575,68.414971 h 0.2378342 l 0.750949,1.204352 V 68.414971 H 10.01762 v 1.486717 H 9.7919306 L 9.029849,68.698348 v 1.20334 H 8.8375575 Z m 0.5768745,0 z" style="font-size:2.0727px;line-height:1.35;font-family:Helvetica;-inkscape-font-specification:Helvetica;fill:#ffffff;stroke-width:0.140349" id="path1707"></path>
        <path d="m 11.4173,68.414971 v 0.17711 h -0.50097 v 1.309607 h -0.204437 v -1.309607 h -0.500969 v -0.17711 z" style="font-size:2.0727px;line-height:1.35;font-family:Helvetica;-inkscape-font-specification:Helvetica;fill:#ffffff;stroke-width:0.140349" id="path1709"></path>
        <path d="m 11.621736,68.414971 h 1.083917 v 0.182171 h -0.887577 v 0.451379 h 0.820781 v 0.17205 h -0.820781 v 0.504006 h 0.902758 v 0.177111 h -1.099098 z m 0.549549,0 z" style="font-size:2.0727px;line-height:1.35;font-family:Helvetica;-inkscape-font-specification:Helvetica;fill:#ffffff;stroke-width:0.140349" id="path1711"></path>
        <path d="m 13.678243,69.096087 q 0.141688,0 0.223665,-0.05667 0.08299,-0.05667 0.08299,-0.204436 0,-0.158894 -0.115375,-0.216581 -0.06174,-0.03036 -0.164966,-0.03036 h -0.491861 v 0.508054 z m -0.666948,-0.681116 h 0.688201 q 0.170026,0 0.280341,0.04959 0.209496,0.09513 0.209496,0.351185 0,0.133592 -0.05566,0.218605 -0.05465,0.08501 -0.153833,0.136628 0.08704,0.03542 0.130556,0.09311 0.04453,0.05769 0.04959,0.187232 l 0.0071,0.199376 q 0.003,0.08501 0.01417,0.126507 0.01822,0.07084 0.06477,0.09109 v 0.0334 h -0.246943 q -0.01012,-0.01923 -0.01619,-0.04959 -0.0061,-0.03036 -0.01012,-0.117399 l -0.01214,-0.247955 q -0.0071,-0.145737 -0.108291,-0.195328 -0.05769,-0.02733 -0.181159,-0.02733 H 13.21272 v 0.637599 h -0.2014 z" style="font-size:2.0727px;line-height:1.35;font-family:Helvetica;-inkscape-font-specification:Helvetica;fill:#ffffff;stroke-width:0.140349" id="path1713"></path>
        <path d="m 15.701352,68.374488 q 0.393692,0 0.582947,0.253015 0.147761,0.197352 0.147761,0.505019 0,0.332968 -0.169014,0.553597 -0.198364,0.259087 -0.565742,0.259087 -0.343088,0 -0.539428,-0.226701 -0.175087,-0.218605 -0.175087,-0.552585 0,-0.301594 0.149785,-0.516151 0.192292,-0.275281 0.568778,-0.275281 z m 0.02024,1.390571 q 0.266171,0 0.384583,-0.190267 0.119423,-0.191279 0.119423,-0.439234 0,-0.262124 -0.137641,-0.422029 -0.136628,-0.159906 -0.374462,-0.159906 -0.23075,0 -0.376486,0.158893 -0.145737,0.157882 -0.145737,0.46656 0,0.246943 0.124483,0.416969 0.125496,0.169014 0.405837,0.169014 z m -0.01417,-1.390571 z" style="font-size:2.0727px;line-height:1.35;font-family:Helvetica;-inkscape-font-specification:Helvetica;fill:#ffffff;stroke-width:0.140349" id="path1715"></path>
        <path d="m 16.690135,68.414971 h 1.03129 v 0.182171 h -0.82989 v 0.451379 h 0.729696 v 0.17711 h -0.729696 v 0.676057 h -0.2014 z" style="font-size:2.0727px;line-height:1.35;font-family:Helvetica;-inkscape-font-specification:Helvetica;fill:#ffffff;stroke-width:0.140349" id="path1717"></path>
        <path d="m 19.155515,68.376512 q 0.209497,0 0.362318,0.08096 0.221641,0.116387 0.271232,0.407861 h -0.199376 q -0.03643,-0.162942 -0.150797,-0.236823 -0.114363,-0.07489 -0.288437,-0.07489 -0.206461,0 -0.348149,0.154845 -0.140676,0.154845 -0.140676,0.4615 0,0.26516 0.116387,0.43215 0.116387,0.165978 0.379522,0.165978 0.2014,0 0.332968,-0.116387 0.13258,-0.117399 0.135616,-0.378511 h -0.465548 v -0.16699 h 0.652779 v 0.79548 h -0.129543 l -0.04858,-0.19128 q -0.102218,0.112339 -0.181159,0.155858 -0.13258,0.07489 -0.337016,0.07489 -0.264148,0 -0.454415,-0.171038 -0.207473,-0.214557 -0.207473,-0.589019 0,-0.373451 0.202412,-0.59408 0.192292,-0.210509 0.497934,-0.210509 z m -0.0334,-0.002 z" style="font-size:2.0727px;line-height:1.35;font-family:Helvetica;-inkscape-font-specification:Helvetica;fill:#ffffff;stroke-width:0.140349" id="path1719"></path>
        <path d="m 20.815294,69.096087 q 0.141689,0 0.223666,-0.05667 0.08299,-0.05667 0.08299,-0.204436 0,-0.158894 -0.115375,-0.216581 -0.06174,-0.03036 -0.164966,-0.03036 h -0.491861 v 0.508054 z m -0.666948,-0.681116 h 0.688202 q 0.170026,0 0.28034,0.04959 0.209497,0.09513 0.209497,0.351185 0,0.133592 -0.05566,0.218605 -0.05465,0.08501 -0.153834,0.136628 0.08704,0.03542 0.130556,0.09311 0.04453,0.05769 0.04959,0.187232 l 0.0071,0.199376 q 0.003,0.08501 0.01417,0.126507 0.01822,0.07084 0.06477,0.09109 v 0.0334 h -0.246942 q -0.01012,-0.01923 -0.01619,-0.04959 -0.0061,-0.03036 -0.01012,-0.117399 l -0.01215,-0.247955 q -0.0071,-0.145737 -0.10829,-0.195328 -0.05769,-0.02733 -0.181159,-0.02733 h -0.458463 v 0.637599 h -0.201401 z" style="font-size:2.0727px;line-height:1.35;font-family:Helvetica;-inkscape-font-specification:Helvetica;fill:#ffffff;stroke-width:0.140349" id="path1721"></path>
        <path d="M 22.385,69.292427 22.159311,68.6356 21.919452,69.292427 Z m -0.330944,-0.877456 h 0.227714 l 0.539428,1.486717 h -0.220629 l -0.150797,-0.445307 h -0.588007 l -0.160918,0.445307 h -0.20646 z" style="font-size:2.0727px;line-height:1.35;font-family:Helvetica;-inkscape-font-specification:Helvetica;fill:#ffffff;stroke-width:0.140349" id="path1723"></path>
        <path d="m 22.970477,68.414971 0.42709,1.266087 0.422029,-1.266087 h 0.225689 l -0.542464,1.486717 h -0.213545 l -0.541452,-1.486717 z" style="font-size:2.0727px;line-height:1.35;font-family:Helvetica;-inkscape-font-specification:Helvetica;fill:#ffffff;stroke-width:0.140349" id="path1725"></path>
        <path d="m 24.282614,68.414971 h 0.203424 v 1.486717 h -0.203424 z" style="font-size:2.0727px;line-height:1.35;font-family:Helvetica;-inkscape-font-specification:Helvetica;fill:#ffffff;stroke-width:0.140349" id="path1727"></path>
        <path d="m 25.893814,68.414971 v 0.17711 h -0.50097 v 1.309607 h -0.204436 v -1.309607 h -0.50097 v -0.17711 z" style="font-size:2.0727px;line-height:1.35;font-family:Helvetica;-inkscape-font-specification:Helvetica;fill:#ffffff;stroke-width:0.140349" id="path1729"></path>
        <path d="m 25.963646,68.414971 h 0.234798 l 0.427089,0.714514 0.42709,-0.714514 h 0.23581 l -0.561694,0.887577 v 0.59914 h -0.2014 v -0.59914 z m 0.664924,0 z" style="font-size:2.0727px;line-height:1.35;font-family:Helvetica;-inkscape-font-specification:Helvetica;fill:#ffffff;stroke-width:0.140349" id="path1731"></path>
      </g>
    </clipPath>
  </defs>
  <metadata id="metadata5">
    <rdf:rdf>
      <cc:work rdf:about="">
        <dc:format>image/svg+xml</dc:format>
        <dc:type rdf:resource="http://purl.org/dc/dcmitype/StillImage"></dc:type>
      </cc:work>
    </rdf:rdf>
  </metadata>
  <g id="layer1" transform="translate(365.83733,-429.68578)">
    <g id="g1518" transform="matrix(3.9999279,0,0,3.9999279,601.82781,-1319.0258)" style="fill:#ffffff">
      <path d="m -234.84231,456.78741 q -2.69311,0 -4.57829,-1.40042 l 1.14906,-1.77745 q 1.66973,1.05929 3.26765,1.05929 1.02338,0 1.59791,-0.32318 0.59249,-0.32317 0.59249,-0.96952 0,-0.39499 -0.1975,-0.64635 -0.17954,-0.26931 -0.6643,-0.50271 -0.46681,-0.25136 -1.41837,-0.62839 l -0.41295,-0.16159 q -1.14906,-0.44885 -1.84927,-0.8618 -0.70021,-0.41294 -1.11315,-1.05929 -0.41295,-0.64635 -0.41295,-1.63382 0,-1.0952 0.6284,-1.81337 0.62839,-0.73611 1.61586,-1.07724 0.98748,-0.34113 2.10063,-0.34113 1.00543,0 2.06473,0.34113 1.07724,0.32317 2.04676,0.96952 l -1.16701,1.7595 q -0.8618,-0.52067 -1.5261,-0.75407 -0.6643,-0.2334 -1.43633,-0.2334 -0.8618,0 -1.31065,0.28726 -0.4309,0.28727 -0.4309,0.77203 0,0.30522 0.17954,0.55657 0.17954,0.23341 0.64635,0.48477 0.46681,0.2334 1.34656,0.55657 l 0.39499,0.14364 q 1.14906,0.43089 1.84927,0.80793 0.71817,0.37704 1.20293,1.07725 0.48476,0.70021 0.48476,1.81336 0,1.16702 -0.61044,1.97495 -0.61044,0.78998 -1.66973,1.18497 -1.04134,0.39499 -2.36995,0.39499 z" style="font-style:normal;font-variant:normal;font-weight:bold;font-stretch:normal;font-size:17.95410000000000039px;line-height:1.25;font-family:Dubai;-inkscape-font-specification:Dubai;stroke-width:0.448855;fill:#ffffff" id="path1451"></path>
      <path fill-rule="evenodd" clip-rule="evenodd" d="m -218.12156,451.32735 c -1.30705,2.31699 -2.50508,4.43839 -3.7026,6.56112 0.0632,0.0259 0.12674,0.0525 0.18997,0.0792 0.71325,0 0.49474,0.002 1.17502,0.002 1.12653,-1.02201 1.19347,-1.01531 2.79931,-2.32763 0.47228,-0.26872 0.34158,-0.58522 0.27252,-0.90998 -0.22754,-1.06945 -0.4609,-2.13777 -0.73422,-3.4043 z" id="path1453" style="fill:#ffffff;stroke-width:0.223059"></path>
      <path transform="scale(0.26458333)" d="m -810.03125,1661.8047 c -1.01499,1.1912 -1.715,1.8739 -2.20898,2.623 -1.57399,2.3825 -3.18525,4.7575 -4.57422,7.1953 -9.13701,16.0458 -7.29379,31.5179 -3.00977,47.9454 0.16698,0.6389 0.0622,1.7958 1.49414,2.457 2.1408,1.5087 2.57577,2.1678 1.75977,3.8281 -1.27601,2.5985 0.11285,3.9418 4.04492,4.6582 3.64195,0.666 8.93907,-0.3462 9.76758,-1.6582 0.42191,-1.1062 0.17048,-2.5297 -0.84375,-3.5469 -1.02157,-1.0246 8.6e-4,-1.644 0.71289,-2.6543 0.51726,-0.7339 1.71434,-0.6955 2.15429,-2.8027 2.44498,-10.4536 5.46828,-20.9346 3.19727,-31.6953 -1.93002,-9.1508 -5.60213,-17.8086 -12.49414,-26.3496 z m -0.0176,25.3125 v 7.539 h 7.53906 a 7.5391036,7.5391036 0 0 1 -2.20703,5.3321 7.5391036,7.5391036 0 0 1 -5.33203,2.207 v -7.5391 h -7.53906 a 7.5391035,7.5391035 0 0 1 2.20898,-5.33 7.5391035,7.5391035 0 0 1 5.33008,-2.209 z m 0,18.375 a 7.5393199,7.5393199 0 0 1 7.53906,7.539 7.5393199,7.5393199 0 0 1 -7.53906,7.5391 7.5393199,7.5393199 0 0 1 -7.53906,-7.5391 7.5393199,7.5393199 0 0 1 7.53906,-7.539 z m 0,1.4844 a 6.0552026,6.0552026 0 0 0 -6.05664,6.0566 6.0552026,6.0552026 0 0 0 6.05664,6.0547 6.0552026,6.0552026 0 0 0 6.05469,-6.0547 6.0552026,6.0552026 0 0 0 -6.05469,-6.0566 z m -0.0566,2.0117 a 4.0431655,4.0431655 0 0 1 0.0566,0 4.0431655,4.0431655 0 0 1 4.04297,4.0449 4.0431655,4.0431655 0 0 1 -4.04297,4.043 4.0431655,4.0431655 0 0 1 -4.04297,-4.043 4.0431655,4.0431655 0 0 1 3.98633,-4.0449 z" style="fill:#ffffff;stroke-width:0.843058" id="path1455"></path>
      <path style="fill:#ffffff;stroke-width:0.223059" id="path1457" d="m -210.61501,451.36586 c 1.30704,2.31699 2.50507,4.43839 3.70258,6.56112 -0.0632,0.0259 -0.12674,0.0525 -0.18997,0.0792 -0.71325,0 -0.49473,0.002 -1.17501,0.002 -1.12653,-1.02201 -1.19346,-1.01531 -2.7993,-2.32763 -0.47228,-0.26872 -0.34158,-0.58522 -0.27252,-0.90998 0.22754,-1.06945 0.4609,-2.13777 0.73422,-3.4043 z" clip-rule="evenodd" fill-rule="evenodd"></path>
      <path d="m -224.24209,444.9018 q 1.54405,0 2.56743,0.48476 1.02339,0.48476 1.5261,1.3286 0.50272,0.82589 0.50272,1.92109 0,1.16702 -0.52067,2.08268 -0.52067,0.8977 -1.57996,1.41837 -1.04134,0.50271 -2.54948,0.50271 h -1.47224 v 3.89604 h -2.54948 V 444.9018 Z m -0.30522,5.69145 q 1.0952,0 1.68768,-0.41295 0.59249,-0.4309 0.59249,-1.47223 0,-0.87975 -0.53862,-1.31065 -0.52067,-0.44886 -1.47224,-0.44886 h -1.49019 v 3.64469 z" style="font-style:normal;font-variant:normal;font-weight:bold;font-stretch:normal;font-size:17.95410000000000039px;line-height:1.25;font-family:Dubai;-inkscape-font-specification:Dubai;stroke-width:0.448855;fill:#ffffff" id="path1459"></path>
      <path d="m -202.6363,456.78741 q -2.92651,0 -4.29102,-1.61587 -1.34656,-1.63382 -1.34656,-4.36284 0,-2.20836 0.75407,-3.57287 0.75407,-1.38247 1.9929,-1.97495 1.25679,-0.61044 2.8188,-0.61044 1.0952,0 2.01086,0.26931 0.91566,0.25136 1.83132,0.78998 l -0.95157,1.88518 q -1.27474,-0.82589 -2.76493,-0.82589 -3.03425,0 -3.03425,3.89604 0,1.93905 0.84385,2.94448 0.84384,1.00543 2.38789,1.00543 0.78998,0 1.38247,-0.1975 0.59248,-0.21545 1.23883,-0.59249 l 0.98748,1.79541 q -0.96953,0.57454 -1.90314,0.87976 -0.91566,0.28726 -1.957,0.28726 z" style="font-style:normal;font-variant:normal;font-weight:bold;font-stretch:normal;font-size:17.95410000000000039px;line-height:1.25;font-family:Dubai;-inkscape-font-specification:Dubai;stroke-width:0.448855;fill:#ffffff" id="path1461"></path>
      <path d="m -194.73425,454.45338 h 5.31441 v 2.08267 h -7.86389 V 444.9018 h 7.77412 v 2.06472 h -5.22464 v 2.6213 h 4.50648 l -0.28727,2.04676 h -4.21921 z" style="font-style:normal;font-variant:normal;font-weight:bold;font-stretch:normal;font-size:17.95410000000000039px;line-height:1.25;font-family:Dubai;-inkscape-font-specification:Dubai;stroke-width:0.448855;fill:#ffffff" id="path1463"></path>
      <path id="path1465" style="font-style:normal;font-variant:normal;font-weight:normal;font-stretch:normal;font-size:11.25769999999999982px;line-height:1.25;font-family:Dubai;-inkscape-font-specification:Dubai;fill:#ffffff;stroke-width:0.281443" d="m -239.41935,466.7282 v -7.29499 h 1.03571 v 7.29499 z"></path>
      <path id="path1467" style="font-style:normal;font-variant:normal;font-weight:normal;font-stretch:normal;font-size:11.25769999999999982px;line-height:1.25;font-family:Dubai;-inkscape-font-specification:Dubai;fill:#ffffff;stroke-width:0.281443" d="m -230.54987,459.43321 v 7.29499 h -1.14828 l -3.20845,-4.72824 -0.14635,-0.21389 q -0.0225,-0.045 -0.14635,-0.2139 -0.11257,-0.16886 -0.20264,-0.31522 -0.0788,-0.14635 -0.14635,-0.2927 v 5.76395 h -0.99067 v -7.29499 h 1.09199 l 3.29851,4.82955 q 0.045,0.0675 0.19138,0.28144 0.14635,0.20264 0.24767,0.38277 0.10132,0.16886 0.16887,0.32647 v -5.82023 z"></path>
      <path id="path1469" style="font-style:normal;font-variant:normal;font-weight:normal;font-stretch:normal;font-size:11.25769999999999982px;line-height:1.25;font-family:Dubai;-inkscape-font-specification:Dubai;fill:#ffffff;stroke-width:0.281443" d="m -228.71134,466.7282 v -7.29499 h 1.0357 v 7.29499 z"></path>
      <path id="path1471" style="font-style:normal;font-variant:normal;font-weight:normal;font-stretch:normal;font-size:11.25769999999999982px;line-height:1.25;font-family:Dubai;-inkscape-font-specification:Dubai;fill:#ffffff;stroke-width:0.281443" d="m -220.46103,459.43321 v 0.90061 h -2.52173 v 6.39438 h -1.03571 v -6.39438 h -2.53298 v -0.90061 z"></path>
      <path id="path1473" style="font-style:normal;font-variant:normal;font-weight:normal;font-stretch:normal;font-size:11.25769999999999982px;line-height:1.25;font-family:Dubai;-inkscape-font-specification:Dubai;fill:#ffffff;stroke-width:0.281443" d="m -219.34459,466.7282 v -7.29499 h 1.03571 v 7.29499 z"></path>
      <path id="path1475" style="font-style:normal;font-variant:normal;font-weight:normal;font-stretch:normal;font-size:11.25769999999999982px;line-height:1.25;font-family:Dubai;-inkscape-font-specification:Dubai;fill:#ffffff;stroke-width:0.281443" d="m -205.04766,459.43321 v 0.90061 h -2.52172 v 6.39438 h -1.03571 v -6.39438 h -2.53298 v -0.90061 z"></path>
      <path id="path1477" style="font-style:normal;font-variant:normal;font-weight:normal;font-stretch:normal;font-size:11.25769999999999982px;line-height:1.25;font-family:Dubai;-inkscape-font-specification:Dubai;fill:#ffffff;stroke-width:0.281443" d="m -203.93121,466.7282 v -7.29499 h 1.03571 v 7.29499 z"></path>
      <path id="path1479" style="fill:#ffffff;stroke:none;stroke-width:0.26458300000000001px;stroke-linecap:butt;stroke-linejoin:miter;stroke-opacity:1" d="m -189.42022,469.62534 c -14.40695,0 -19.0471,0.70037 -20.89873,-2.50676 -1.09602,-1.89835 -3.53346,-6.70595 -2.42409,-9.0192 0,0 -0.25941,0.0864 -0.59349,0.18664 -0.33409,0.10012 -0.7097,0.10712 -0.99367,0.10712 -0.28397,0 -0.57975,-0.0354 -0.91873,-0.12789 -0.33996,-0.0927 -0.56701,-0.18888 -0.56701,-0.18888 1.96353,2.33626 -0.53085,7.25359 -1.51364,8.95583 -1.73536,3.00573 -6.90569,2.59314 -22.09064,2.59314 v 0.8781 c 17.808,10e-6 21.06212,0.0664 22.83545,-3.00511 0.98868,-1.71244 2.08208,-4.22337 2.63213,-6.7182 0.61282,2.37097 1.87924,5.17433 2.83742,6.83394 1.71254,2.96621 3.7818,2.88937 21.695,2.88937 z"></path>
      <path id="path1481" style="font-style:normal;font-variant:normal;font-weight:normal;font-stretch:normal;font-size:11.25769999999999982px;line-height:1.25;font-family:Dubai;-inkscape-font-specification:Dubai;fill:#ffffff;stroke-width:0.281443" d="m -196.1875,459.43321 h 1.03571 v 0.0675 l -2.69059,7.22745 h -1.26086 l -2.67933,-7.22745 v -0.0675 h 1.08073 l 2.2628,6.30431 z"></path>
      <path id="path1483" style="font-style:normal;font-variant:normal;font-weight:normal;font-stretch:normal;font-size:11.25769999999999982px;line-height:1.25;font-family:Dubai;-inkscape-font-specification:Dubai;fill:#ffffff;stroke-width:0.281443" d="m -193.00104,465.8501 h 3.57995 v 0.8781 h -4.61566 v -7.29499 h 4.55937 v 0.8781 h -3.52366 v 2.27405 h 3.08461 l -0.11258,0.85559 h -2.97203 z"></path>
    </g>
  </g>
</svg>