<?xml version="1.0" encoding="UTF-8" standalone="no"?>
<!-- Created with Inkscape (http://www.inkscape.org/) -->

<svg
   width="119.04702mm"
   height="21.533611mm"
   viewBox="0 0 119.04702 21.533611"
   version="1.1"
   id="svg5"
   xmlns:inkscape="http://www.inkscape.org/namespaces/inkscape"
   xmlns:sodipodi="http://sodipodi.sourceforge.net/DTD/sodipodi-0.dtd"
   xmlns="http://www.w3.org/2000/svg"
   xmlns:svg="http://www.w3.org/2000/svg">
  <sodipodi:namedview
     id="namedview7"
     pagecolor="#505050"
     bordercolor="#eeeeee"
     borderopacity="1"
     inkscape:showpageshadow="0"
     inkscape:pageopacity="0"
     inkscape:pagecheckerboard="0"
     inkscape:deskcolor="#505050"
     inkscape:document-units="mm"
     showgrid="false" />
  <defs
     id="defs2" />
  <g
     inkscape:label="Layer 1"
     inkscape:groupmode="layer"
     id="layer1"
     transform="translate(-16.804564,-37.896617)">
    <g
       aria-label="dharavi.org"
       id="text186"
       style="font-weight:bold;font-size:19.7556px;line-height:49.883px;font-family:Montserrat;-inkscape-font-specification:'Montserrat Bold';text-align:center;text-anchor:middle">
      <path
         d="m 25.536536,53.029408 h -0.07902 q -1.363136,1.461914 -3.536252,1.461914 -1.126069,0 -2.074338,-0.395112 -0.928513,-0.395112 -1.619959,-1.106314 -0.671691,-0.711201 -1.047047,-1.679226 -0.375356,-0.98778 -0.375356,-2.173116 0,-1.185336 0.375356,-2.192871 0.395112,-1.007536 1.047047,-1.738493 0.67169,-0.750713 1.580448,-1.16558 0.928513,-0.414868 1.995315,-0.414868 0.98778,0 1.738493,0.296334 0.770469,0.296334 1.343381,1.007536 h 0.07902 v -1.679226 q 0,-1.165581 -0.03951,-1.995316 -0.01975,-0.849491 -0.07902,-1.106314 -0.09878,-0.414867 -0.612424,-0.592668 -0.49389,-0.197556 -1.540937,-0.197556 v -0.67169 L 27.6899,37.896618 v 11.300203 q 0,1.48167 0.01976,2.29165 0.03951,0.790224 0.118533,1.205091 0.03951,0.256823 0.118534,0.414868 0.07902,0.158045 0.237067,0.256823 0.158045,0.07902 0.414868,0.118533 0.276578,0.01976 0.691446,0.01976 v 0.770468 l -3.753564,0.217312 z m -0.612424,-4.405499 q 0,-0.750713 -0.158045,-1.382892 -0.158044,-0.651935 -0.474134,-1.145825 -0.355601,-0.572912 -0.908758,-0.869246 -0.553156,-0.296334 -1.185336,-0.296334 -1.16558,0 -1.778004,1.066802 -0.612423,1.066802 -0.612423,3.101629 0,2.054583 0.612423,3.160896 0.612424,1.106314 1.758249,1.106314 0.651935,0 1.244603,-0.335845 0.592668,-0.335846 0.968024,-0.908758 0.276578,-0.434623 0.395112,-1.066802 0.138289,-0.651935 0.138289,-1.659471 z"
         style="font-family:'Libre Baskerville';-inkscape-font-specification:'Libre Baskerville Bold';fill:#ffffff"
         id="path498" />
      <path
         d="m 34.564812,51.053848 q 0,0.809979 0.03951,1.284114 0.05927,0.454378 0.217311,0.711201 0.177801,0.256823 0.513646,0.335845 0.355601,0.07902 0.948269,0.118534 v 0.790224 h -6.223014 v -0.790224 q 0.592668,-0.03951 0.948268,-0.118534 0.355601,-0.07902 0.533402,-0.316089 0.1778,-0.237067 0.217311,-0.671691 0.05927,-0.454378 0.05927,-1.205091 v -8.119552 q 0,-1.185336 -0.03951,-1.857026 -0.01976,-0.691446 -0.09878,-1.047047 -0.05927,-0.256823 -0.138289,-0.395112 -0.07902,-0.158045 -0.256823,-0.237067 -0.158045,-0.09878 -0.454379,-0.118534 -0.276578,-0.03951 -0.711202,-0.03951 v -0.730957 l 4.405499,-0.750713 v 7.289816 h 0.07902 q 0.612423,-0.809979 1.363136,-1.185336 0.770468,-0.375356 1.837271,-0.375356 1.936049,0 3.002851,1.185336 0.513646,0.592668 0.80998,1.442159 0.296334,0.829735 0.296334,1.738493 v 3.062118 q 0,0.829735 0.03951,1.303869 0.03951,0.454379 0.197556,0.711202 0.1778,0.237067 0.513645,0.316089 0.335846,0.07902 0.928514,0.118534 v 0.790224 h -6.183503 v -0.790224 q 0.592668,-0.01976 0.928513,-0.09878 0.355601,-0.09878 0.533401,-0.335845 0.197556,-0.237067 0.237067,-0.671691 0.05927,-0.454378 0.05927,-1.205091 v -2.429939 q 0,-2.094094 -0.454379,-2.96334 -0.454378,-0.869246 -1.560692,-0.869246 -1.185336,0 -1.876782,0.869246 -0.335845,0.454379 -0.533401,1.126069 -0.177801,0.671691 -0.177801,1.501426 z"
         style="font-family:'Libre Baskerville';-inkscape-font-specification:'Libre Baskerville Bold';fill:#ffffff"
         id="path500" />
      <path
         d="m 50.645847,48.66342 q -1.65947,0.750713 -2.508961,1.402648 -0.829735,0.632179 -0.829735,1.323625 0,0.572912 0.316089,0.908757 0.31609,0.335846 0.790224,0.335846 0.474135,0 0.889002,-0.158045 0.414868,-0.177801 0.711202,-0.454379 0.296334,-0.276578 0.454379,-0.651935 0.1778,-0.395112 0.1778,-0.829735 z m 0,-1.047047 v -0.829735 q 0,-1.145825 -0.414868,-1.65947 -0.395112,-0.533402 -1.244602,-0.533402 -0.572913,0 -0.869247,0.31609 -0.296334,0.296334 -0.553157,1.007536 -0.1778,0.49389 -0.513645,0.770468 -0.31609,0.276578 -0.889002,0.276578 -0.553157,0 -0.849491,-0.335845 -0.296334,-0.335845 -0.296334,-0.948269 0,-0.948268 1.027291,-1.501425 1.047047,-0.553157 3.141141,-0.553157 2.212627,0 3.160896,0.80998 0.948268,0.790224 0.948268,2.667006 v 4.326476 q 0,1.679226 0.671691,1.679226 0.375356,0 0.691446,-0.256823 l 0.296334,0.572913 q -0.276579,0.49389 -0.869247,0.790224 -0.572912,0.276578 -1.303869,0.276578 -0.908758,0 -1.382892,-0.553157 -0.474135,-0.553157 -0.474135,-1.560692 h -0.09878 q -0.572912,1.027291 -1.48167,1.560692 -0.908757,0.533401 -2.074338,0.533401 -1.244602,0 -1.995315,-0.691446 -0.750713,-0.711201 -0.750713,-1.83727 0,-0.869247 0.770468,-1.61996 0.770469,-0.770468 2.568228,-1.501425 z"
         style="font-family:'Libre Baskerville';-inkscape-font-specification:'Libre Baskerville Bold';fill:#ffffff"
         id="path502" />
      <path
         d="m 60.28657,51.231648 q 0,0.770468 0.05927,1.224847 0.07902,0.434623 0.296334,0.671691 0.217311,0.237067 0.632179,0.316089 0.414867,0.05927 1.106313,0.05927 v 0.790224 h -6.59837 v -0.790224 q 0.592668,-0.03951 0.948269,-0.118534 0.355601,-0.07902 0.533401,-0.316089 0.1778,-0.237067 0.217312,-0.671691 0.05927,-0.454378 0.05927,-1.205091 v -2.410183 q 0,-1.224848 -0.05927,-1.955805 -0.05927,-0.730957 -0.256823,-1.126069 -0.197556,-0.395112 -0.572913,-0.513646 -0.3556,-0.138289 -0.948268,-0.138289 v -0.691446 l 3.95112,-0.730957 0.316089,2.271894 h 0.07902 q 0.533401,-1.047047 1.402647,-1.65947 0.869247,-0.612424 1.837271,-0.612424 0.750713,0 1.224847,0.375356 0.474135,0.375357 0.474135,0.948269 0,0.632179 -0.375357,1.066803 -0.355601,0.434623 -0.98778,0.434623 -0.296334,0 -0.533401,-0.118534 -0.237067,-0.118533 -0.434623,-0.256823 -0.177801,-0.158044 -0.375357,-0.276578 -0.1778,-0.138289 -0.375356,-0.138289 -0.375356,0 -0.711202,0.49389 -0.335845,0.49389 -0.553156,1.323625 -0.158045,0.592668 -0.256823,1.343381 -0.09878,0.730957 -0.09878,1.461914 z"
         style="font-family:'Libre Baskerville';-inkscape-font-specification:'Libre Baskerville Bold';fill:#ffffff"
         id="path504" />
      <path
         d="m 71.823824,48.66342 q -1.659471,0.750713 -2.508962,1.402648 -0.829735,0.632179 -0.829735,1.323625 0,0.572912 0.31609,0.908757 0.316089,0.335846 0.790224,0.335846 0.474134,0 0.889002,-0.158045 0.414867,-0.177801 0.711201,-0.454379 0.296334,-0.276578 0.454379,-0.651935 0.177801,-0.395112 0.177801,-0.829735 z m 0,-1.047047 v -0.829735 q 0,-1.145825 -0.414868,-1.65947 -0.395112,-0.533402 -1.244603,-0.533402 -0.572912,0 -0.869246,0.31609 -0.296334,0.296334 -0.553157,1.007536 -0.1778,0.49389 -0.513646,0.770468 -0.316089,0.276578 -0.889002,0.276578 -0.553156,0 -0.84949,-0.335845 -0.296334,-0.335845 -0.296334,-0.948269 0,-0.948268 1.027291,-1.501425 1.047047,-0.553157 3.14114,-0.553157 2.212627,0 3.160896,0.80998 0.948269,0.790224 0.948269,2.667006 v 4.326476 q 0,1.679226 0.67169,1.679226 0.375357,0 0.691446,-0.256823 l 0.296334,0.572913 q -0.276578,0.49389 -0.869246,0.790224 -0.572912,0.276578 -1.30387,0.276578 -0.908757,0 -1.382892,-0.553157 -0.474134,-0.553157 -0.474134,-1.560692 h -0.09878 q -0.572912,1.027291 -1.48167,1.560692 -0.908758,0.533401 -2.074338,0.533401 -1.244603,0 -1.995316,-0.691446 -0.750712,-0.711201 -0.750712,-1.83727 0,-0.869247 0.770468,-1.61996 0.770468,-0.770468 2.568228,-1.501425 z"
         style="font-family:'Libre Baskerville';-inkscape-font-specification:'Libre Baskerville Bold';fill:#ffffff"
         id="path506" />
      <path
         d="m 77.888775,46.37177 q -0.217311,-0.572912 -0.414867,-0.908757 -0.197556,-0.355601 -0.414868,-0.533401 -0.197556,-0.197556 -0.454379,-0.256823 -0.237067,-0.05927 -0.572912,-0.05927 v -0.790224 h 5.906924 v 0.790224 q -0.49389,0 -0.790224,0.03951 -0.276578,0.03951 -0.434623,0.118534 -0.138289,0.07902 -0.1778,0.217311 -0.03951,0.118534 -0.03951,0.276579 0,0.256823 0.09878,0.592668 0.09878,0.335845 0.237068,0.67169 l 1.876782,5.175967 h 0.07902 l 2.113849,-5.156211 q 0.138289,-0.335845 0.217312,-0.592668 0.07902,-0.276579 0.07902,-0.49389 0,-0.434623 -0.296334,-0.632179 -0.296334,-0.197556 -1.047047,-0.217312 v -0.790224 h 4.365988 v 0.790224 q -0.533401,0 -0.928513,0.276578 -0.375357,0.276579 -0.790224,1.224848 l -3.694297,8.376374 h -1.79776 z"
         style="font-family:'Libre Baskerville';-inkscape-font-specification:'Libre Baskerville Bold';fill:#ffffff"
         id="path508" />
      <path
         d="m 93.298118,51.053848 q 0,0.790224 0.05927,1.264358 0.05927,0.474134 0.237068,0.730957 0.1778,0.256823 0.513645,0.355601 0.335845,0.07902 0.908758,0.09878 v 0.790224 h -6.223014 v -0.790224 q 0.553157,-0.01976 0.889002,-0.118534 0.355601,-0.118533 0.533401,-0.3556 0.197556,-0.256823 0.256823,-0.691446 0.07902,-0.454379 0.07902,-1.145825 V 48.7622 q 0,-1.145825 -0.03951,-1.876782 -0.03951,-0.750713 -0.09878,-1.027291 -0.09878,-0.49389 -0.454379,-0.651935 -0.335845,-0.158045 -1.244603,-0.158045 v -0.67169 l 4.5833,-0.750713 z M 90.394044,39.437555 q 0,-0.651935 0.434624,-1.086558 0.454378,-0.454379 1.086558,-0.454379 0.651934,0 1.086558,0.454379 0.454378,0.434623 0.454378,1.086558 0,0.632179 -0.454378,1.086558 -0.434624,0.434623 -1.086558,0.434623 -0.63218,0 -1.086558,-0.434623 -0.434624,-0.454379 -0.434624,-1.086558 z"
         style="font-family:'Libre Baskerville';-inkscape-font-specification:'Libre Baskerville Bold';fill:#ffffff"
         id="path510" />
      <path
         d="m 96.419468,53.029408 q 0,-0.63218 0.414867,-1.066803 0.434623,-0.454379 1.066803,-0.454379 0.651934,0 1.086558,0.454379 0.434623,0.434623 0.434623,1.066803 0,0.612423 -0.434623,1.047046 -0.434624,0.414868 -1.086558,0.414868 -0.63218,0 -1.066803,-0.414868 -0.414867,-0.434623 -0.414867,-1.047046 z"
         style="font-family:'Libre Baskerville';-inkscape-font-specification:'Libre Baskerville Bold';fill:#ffffff"
         id="path512" />
      <path
         d="m 106.96892,43.625742 q 1.18534,0 2.23239,0.414868 1.0668,0.395112 1.85702,1.106313 0.80998,0.711202 1.26436,1.698982 0.47414,0.968024 0.47414,2.133605 0,1.205091 -0.47414,2.212627 -0.45438,1.007535 -1.26436,1.738493 -0.79022,0.730957 -1.85702,1.145824 -1.04705,0.414868 -2.23239,0.414868 -1.16558,0 -2.21262,-0.395112 -1.04705,-0.414868 -1.83727,-1.145825 -0.79023,-0.730957 -1.24461,-1.738493 -0.45438,-1.027291 -0.45438,-2.232382 0,-1.165581 0.45438,-2.153361 0.45438,-0.98778 1.24461,-1.698981 0.79022,-0.711202 1.83727,-1.106314 1.04704,-0.395112 2.21262,-0.395112 z m 0,1.145825 q -0.59266,0 -1.08655,0.316089 -0.49389,0.296334 -0.8495,0.849491 -0.33584,0.553157 -0.5334,1.343381 -0.1778,0.770468 -0.1778,1.718737 0,0.98778 0.1778,1.778004 0.19756,0.790224 0.5334,1.343381 0.35561,0.553157 0.82974,0.869246 0.49389,0.296334 1.10631,0.296334 0.61243,0 1.10632,-0.296334 0.51364,-0.316089 0.86924,-0.869246 0.3556,-0.572912 0.55316,-1.363136 0.19756,-0.790224 0.19756,-1.758249 0,-0.948269 -0.19756,-1.718737 -0.19756,-0.770468 -0.55316,-1.323625 -0.3556,-0.572913 -0.86924,-0.869247 -0.49389,-0.316089 -1.10632,-0.316089 z"
         style="font-family:'Libre Baskerville';-inkscape-font-specification:'Libre Baskerville Bold';fill:#ffffff"
         id="path514" />
      <path
         d="m 118.62473,51.231648 q 0,0.770468 0.0593,1.224847 0.079,0.434623 0.29634,0.671691 0.21731,0.237067 0.63218,0.316089 0.41487,0.05927 1.10631,0.05927 v 0.790224 h -6.59837 v -0.790224 q 0.59267,-0.03951 0.94827,-0.118534 0.3556,-0.07902 0.5334,-0.316089 0.1778,-0.237067 0.21731,-0.671691 0.0593,-0.454378 0.0593,-1.205091 v -2.410183 q 0,-1.224848 -0.0593,-1.955805 -0.0593,-0.730957 -0.25682,-1.126069 -0.19756,-0.395112 -0.57291,-0.513646 -0.3556,-0.138289 -0.94827,-0.138289 v -0.691446 l 3.95112,-0.730957 0.31609,2.271894 h 0.079 q 0.5334,-1.047047 1.40265,-1.65947 0.86924,-0.612424 1.83727,-0.612424 0.75071,0 1.22485,0.375356 0.47413,0.375357 0.47413,0.948269 0,0.632179 -0.37536,1.066803 -0.3556,0.434623 -0.98778,0.434623 -0.29633,0 -0.5334,-0.118534 -0.23706,-0.118533 -0.43462,-0.256823 -0.1778,-0.158044 -0.37536,-0.276578 -0.1778,-0.138289 -0.37535,-0.138289 -0.37536,0 -0.7112,0.49389 -0.33585,0.49389 -0.55316,1.323625 -0.15805,0.592668 -0.25682,1.343381 -0.0988,0.730957 -0.0988,1.461914 z"
         style="font-family:'Libre Baskerville';-inkscape-font-specification:'Libre Baskerville Bold';fill:#ffffff"
         id="path516" />
      <path
         d="m 127.87033,52.160161 q 0.5334,0.03951 0.92851,0.07902 0.41487,0.03951 0.77047,0.09878 0.37536,0.03951 0.73096,0.09878 0.37536,0.03951 0.79022,0.09878 1.54094,0.217311 2.41019,1.16558 0.889,0.928513 0.889,2.311405 0,1.679226 -1.38289,2.548473 -1.38289,0.869246 -4.06966,0.869246 -2.46945,0 -3.81283,-0.730957 -1.32362,-0.711202 -1.32362,-2.034827 0,-1.027291 0.5334,-1.560692 0.5334,-0.513646 1.34338,-0.513646 0.51365,0 0.98778,0.197556 0.49389,0.217312 0.82974,0.612424 -0.51365,0.09878 -0.8495,0.454378 -0.31609,0.375357 -0.31609,0.869247 0,0.790224 0.69145,1.205091 0.7112,0.434624 2.07434,0.434624 2.96334,0 2.96334,-1.876782 0,-0.671691 -0.45438,-1.165581 -0.43462,-0.474134 -1.26436,-0.572912 l -3.45723,-0.474135 q -2.19287,-0.296334 -2.19287,-1.955804 0,-0.80998 0.51365,-1.323625 0.5334,-0.513646 1.50142,-0.711202 v -0.07902 q -0.45438,-0.177801 -0.82973,-0.49389 -0.3556,-0.31609 -0.63218,-0.730957 -0.27658,-0.414868 -0.43463,-0.889002 -0.13829,-0.49389 -0.13829,-1.007536 0,-0.730957 0.29634,-1.363136 0.31609,-0.651935 0.84949,-1.106314 0.55316,-0.454379 1.28411,-0.711202 0.75072,-0.276578 1.61996,-0.276578 0.84949,0 1.65947,0.256823 0.80998,0.256823 1.38289,0.711201 0.45438,-0.276578 0.79023,-0.454378 0.33584,-0.197556 0.61242,-0.296334 0.29634,-0.118534 0.5334,-0.158045 0.23707,-0.05927 0.47414,-0.05927 0.75071,0 1.20509,0.335845 0.47413,0.335845 0.47413,0.889002 0,0.414868 -0.25682,0.691446 -0.25682,0.256823 -0.67169,0.256823 -0.29633,0 -0.47413,-0.118534 -0.1778,-0.138289 -0.3556,-0.296334 -0.15805,-0.1778 -0.33585,-0.296334 -0.1778,-0.138289 -0.47413,-0.138289 -0.41487,0 -0.79023,0.533401 0.19756,0.335846 0.27658,0.730958 0.079,0.375356 0.079,0.889002 0,0.750712 -0.23706,1.382892 -0.23707,0.632179 -0.75072,1.126069 -0.49389,0.474134 -1.28411,0.809979 -0.79023,0.335846 -1.91629,0.454379 -0.94827,0.09878 -1.32363,0.256823 -0.3556,0.158045 -0.3556,0.474134 0,0.474135 0.889,0.553157 z m 0.94827,-2.410183 q 0.63218,0 0.98778,-0.67169 0.3556,-0.671691 0.3556,-1.876782 0,-1.224848 -0.3556,-1.876782 -0.3556,-0.671691 -1.00754,-0.671691 -0.67169,0 -1.0668,0.671691 -0.39511,0.67169 -0.39511,1.83727 0,1.185336 0.39511,1.896538 0.41487,0.691446 1.08656,0.691446 z"
         style="font-family:'Libre Baskerville';-inkscape-font-specification:'Libre Baskerville Bold';fill:#ffffff"
         id="path518" />
    </g>
  </g>
</svg>
