<svg width="449.941" height="81.387" viewBox="0 0 119.047 21.534" xmlns="http://www.w3.org/2000/svg">
    <g aria-label="dharavi.org" style="font-weight:700;font-size:19.7556px;line-height:49.883px;font-family:Montserrat;-inkscape-font-specification:'Montserrat Bold';text-align:center;text-anchor:middle">
        <path d="M25.537 53.03h-.08q-1.363 1.461-3.536 1.461-1.126 0-2.074-.395-.929-.395-1.62-1.106-.672-.711-1.047-1.68-.375-.987-.375-2.172 0-1.186.375-2.193.395-1.008 1.047-1.739.672-.75 1.58-1.165.929-.415 1.996-.415.988 0 1.738.296.77.296 1.344 1.008h.079v-1.68q0-1.165-.04-1.995-.02-.85-.079-1.106-.099-.415-.612-.593-.494-.197-1.541-.197v-.672l4.998-.79v11.3q0 1.481.02 2.291.04.79.118 1.206.04.256.119.414.079.158.237.257.158.08.415.119.276.02.691.02v.77l-3.753.217zm-.613-4.406q0-.75-.158-1.383-.158-.652-.474-1.146-.356-.573-.909-.87-.553-.295-1.185-.295-1.166 0-1.778 1.066-.613 1.067-.613 3.102 0 2.055.613 3.16.612 1.107 1.758 1.107.652 0 1.245-.336.592-.335.968-.908.276-.435.395-1.067.138-.652.138-1.66zM34.565 51.054q0 .81.04 1.284.059.454.217.711.177.257.513.336.356.079.949.119v.79H30.06v-.79q.592-.04.948-.119.355-.079.533-.316.178-.237.218-.672.059-.454.059-1.205v-8.12q0-1.185-.04-1.856-.02-.692-.099-1.047-.059-.257-.138-.396-.079-.158-.257-.237-.158-.098-.454-.118-.277-.04-.711-.04v-.73l4.405-.751v7.29h.08q.612-.81 1.362-1.186.77-.375 1.838-.375 1.936 0 3.003 1.185.513.593.81 1.442.296.83.296 1.739v3.062q0 .83.04 1.304.039.454.197.71.178.238.514.317.335.079.928.119v.79H37.41v-.79q.592-.02.928-.1.356-.098.534-.335.197-.237.237-.672.059-.454.059-1.205v-2.43q0-2.094-.455-2.963-.454-.87-1.56-.87-1.186 0-1.877.87-.336.454-.533 1.126-.178.672-.178 1.501zM50.646 48.663q-1.66.751-2.51 1.403-.829.632-.829 1.324 0 .573.316.908.316.336.79.336.475 0 .89-.158.414-.178.71-.454.297-.277.455-.652.178-.395.178-.83zm0-1.047v-.83q0-1.145-.415-1.659-.395-.533-1.245-.533-.573 0-.869.316-.296.296-.553 1.007-.178.494-.514.77-.316.277-.889.277-.553 0-.85-.335-.295-.336-.295-.949 0-.948 1.027-1.501 1.047-.553 3.14-.553 2.214 0 3.162.81.948.79.948 2.667v4.326q0 1.68.672 1.68.375 0 .691-.257l.297.573q-.277.493-.87.79-.573.276-1.304.276-.908 0-1.382-.553-.475-.553-.475-1.56h-.098q-.573 1.027-1.482 1.56-.909.534-2.074.534-1.245 0-1.996-.692-.75-.711-.75-1.837 0-.87.77-1.62.77-.77 2.568-1.502zM60.287 51.232q0 .77.059 1.224.079.435.296.672.217.237.632.316.415.06 1.107.06v.79h-6.599v-.79q.593-.04.949-.119.355-.079.533-.316.178-.237.217-.672.06-.454.06-1.205v-2.41q0-1.225-.06-1.956-.059-.73-.257-1.126-.197-.395-.572-.514-.356-.138-.949-.138v-.691l3.951-.731.316 2.272h.08q.533-1.047 1.402-1.66.87-.612 1.837-.612.751 0 1.225.375.474.375.474.948 0 .633-.375 1.067-.356.435-.988.435-.296 0-.533-.119-.237-.118-.435-.257-.178-.158-.375-.276-.178-.138-.375-.138-.376 0-.712.493-.336.494-.553 1.324-.158.593-.257 1.343-.098.731-.098 1.462zM71.824 48.663q-1.66.751-2.51 1.403-.829.632-.829 1.324 0 .573.316.908.316.336.79.336.475 0 .89-.158.414-.178.71-.454.297-.277.455-.652.178-.395.178-.83zm0-1.047v-.83q0-1.145-.415-1.659-.395-.533-1.245-.533-.573 0-.869.316-.296.296-.553 1.007-.178.494-.514.77-.316.277-.889.277-.553 0-.85-.335-.296-.336-.296-.949 0-.948 1.028-1.501 1.047-.553 3.14-.553 2.214 0 3.162.81.948.79.948 2.667v4.326q0 1.68.672 1.68.375 0 .691-.257l.297.573q-.277.493-.87.79-.573.276-1.304.276-.908 0-1.382-.553-.475-.553-.475-1.56h-.098q-.573 1.027-1.482 1.56-.909.534-2.074.534-1.245 0-1.996-.692-.75-.711-.75-1.837 0-.87.77-1.62.77-.77 2.568-1.502zM77.889 46.372q-.218-.573-.415-.909-.198-.356-.415-.533-.198-.198-.454-.257-.237-.06-.573-.06v-.79h5.907v.79q-.494 0-.79.04-.277.04-.435.119-.138.079-.178.217-.04.118-.04.276 0 .257.1.593.098.336.236.672l1.877 5.176h.08l2.113-5.156q.138-.336.217-.593.08-.277.08-.494 0-.435-.297-.632-.296-.198-1.047-.217v-.79h4.366v.79q-.533 0-.929.276-.375.277-.79 1.225l-3.694 8.376H81.01zM93.298 51.054q0 .79.06 1.264.059.474.236.731.178.257.514.356.336.079.909.099v.79h-6.223v-.79q.553-.02.889-.119.355-.119.533-.356.198-.256.257-.691.08-.454.08-1.146v-2.43q0-1.146-.04-1.877-.04-.75-.1-1.027-.098-.494-.454-.652-.335-.158-1.244-.158v-.672l4.583-.75zm-2.904-11.616q0-.652.435-1.087.454-.454 1.086-.454.652 0 1.087.454.454.435.454 1.087 0 .632-.454 1.086-.435.435-1.087.435-.632 0-1.086-.435-.435-.454-.435-1.086zM96.42 53.03q0-.633.414-1.067.435-.455 1.067-.455.652 0 1.087.455.434.434.434 1.066 0 .613-.434 1.047-.435.415-1.087.415-.632 0-1.067-.415-.415-.434-.415-1.047zM106.969 43.626q1.185 0 2.232.415 1.067.395 1.857 1.106.81.711 1.265 1.699.474.968.474 2.134 0 1.205-.474 2.212-.455 1.008-1.265 1.739-.79.73-1.857 1.145-1.047.415-2.232.415-1.166 0-2.213-.395-1.047-.415-1.837-1.146-.79-.73-1.245-1.738-.454-1.027-.454-2.232 0-1.166.454-2.154.455-.988 1.245-1.699.79-.711 1.837-1.106 1.047-.395 2.213-.395zm0 1.146q-.593 0-1.087.316-.494.296-.85.85-.335.552-.533 1.343-.177.77-.177 1.718 0 .988.177 1.778.198.79.534 1.344.355.553.83.869.493.296 1.106.296.612 0 1.106-.296.514-.316.87-.87.355-.572.553-1.362.197-.79.197-1.759 0-.948-.197-1.718-.198-.77-.554-1.324-.355-.573-.869-.87-.494-.315-1.106-.315zM118.625 51.232q0 .77.059 1.224.079.435.296.672.218.237.633.316.414.06 1.106.06v.79h-6.599v-.79q.593-.04.949-.119.355-.079.533-.316.178-.237.217-.672.06-.454.06-1.205v-2.41q0-1.225-.06-1.956-.059-.73-.256-1.126-.198-.395-.573-.514-.356-.138-.949-.138v-.691l3.952-.731.316 2.272h.079q.533-1.047 1.402-1.66.87-.612 1.838-.612.75 0 1.224.375.475.375.475.948 0 .633-.376 1.067-.355.435-.988.435-.296 0-.533-.119-.237-.118-.435-.257-.177-.158-.375-.276-.178-.138-.375-.138-.376 0-.711.493-.336.494-.554 1.324-.158.593-.256 1.343-.1.731-.1 1.462zM127.87 52.16q.534.04.929.08.415.039.77.098.376.04.731.099.376.04.79.099 1.541.217 2.41 1.165.89.929.89 2.312 0 1.679-1.383 2.548-1.383.87-4.07.87-2.47 0-3.813-.732-1.323-.71-1.323-2.035 0-1.027.533-1.56.533-.514 1.343-.514.514 0 .988.198.494.217.83.612-.514.099-.85.454-.316.376-.316.87 0 .79.692 1.205.711.434 2.074.434 2.964 0 2.964-1.876 0-.672-.455-1.166-.434-.474-1.264-.573l-3.457-.474q-2.193-.296-2.193-1.956 0-.81.513-1.323.534-.514 1.502-.712v-.079q-.455-.177-.83-.494-.356-.316-.632-.73-.277-.415-.435-.89-.138-.493-.138-1.007 0-.731.296-1.363.316-.652.85-1.106.553-.455 1.284-.712.75-.276 1.62-.276.85 0 1.66.257.81.256 1.382.71.455-.276.79-.454.336-.197.613-.296.296-.118.533-.158.237-.06.474-.06.751 0 1.205.337.475.335.475.889 0 .414-.257.691-.257.257-.672.257-.296 0-.474-.119-.178-.138-.356-.296-.158-.178-.336-.296-.177-.139-.474-.139-.415 0-.79.534.198.336.277.73.079.376.079.89 0 .75-.237 1.383-.237.632-.751 1.126-.494.474-1.284.81-.79.336-1.916.454-.949.099-1.324.257-.356.158-.356.474 0 .474.89.553zm.949-2.41q.632 0 .987-.672.356-.671.356-1.876 0-1.225-.356-1.877-.355-.672-1.007-.672-.672 0-1.067.672-.395.671-.395 1.837 0 1.185.395 1.897.415.691 1.087.691z" style="font-family:'Libre Baskerville';-inkscape-font-specification:'Libre Baskerville Bold';fill:#fff" transform="translate(-16.805 -37.897)"/>
    </g>
</svg>
