<?xml version="1.0" encoding="UTF-8" standalone="no"?>
<!-- Created with Inkscape (http://www.inkscape.org/) -->

<svg
   width="8.5032787mm"
   height="1.5382175mm"
   viewBox="0 0 8.5032787 1.5382175"
   version="1.1"
   id="svg5"
   xmlns:inkscape="http://www.inkscape.org/namespaces/inkscape"
   xmlns:sodipodi="http://sodipodi.sourceforge.net/DTD/sodipodi-0.dtd"
   xmlns="http://www.w3.org/2000/svg"
   xmlns:svg="http://www.w3.org/2000/svg">
  <sodipodi:namedview
     id="namedview7"
     pagecolor="#505050"
     bordercolor="#eeeeee"
     borderopacity="1"
     inkscape:showpageshadow="0"
     inkscape:pageopacity="0"
     inkscape:pagecheckerboard="0"
     inkscape:deskcolor="#505050"
     inkscape:document-units="mm"
     showgrid="false" />
  <defs
     id="defs2" />
  <g
     inkscape:label="Layer 1"
     inkscape:groupmode="layer"
     id="layer1"
     transform="translate(-21.820597,-22.787444)">
    <g
       aria-label="dharavi.org"
       id="text186"
       style="font-weight:bold;font-size:1.41111px;font-family:'Berkeley Mono Trial';-inkscape-font-specification:'Berkeley Mono Trial Bold';text-align:center;text-anchor:middle;stroke:#c5a561;stroke-width:0">
      <path
         d="m 22.444266,23.868368 h -0.0056 q -0.09737,0.104422 -0.252589,0.104422 -0.08043,0 -0.148167,-0.02822 -0.06632,-0.02822 -0.115711,-0.07902 -0.04798,-0.0508 -0.07479,-0.119944 -0.02681,-0.07056 -0.02681,-0.155223 0,-0.08467 0.02681,-0.156633 0.02822,-0.07197 0.07479,-0.124177 0.04798,-0.05362 0.112889,-0.08326 0.06632,-0.02963 0.142522,-0.02963 0.07056,0 0.124178,0.02117 0.05503,0.02117 0.09596,0.07197 h 0.0056 v -0.119944 q 0,-0.08326 -0.0028,-0.142522 -0.0014,-0.06068 -0.0056,-0.07902 -0.0071,-0.02963 -0.04374,-0.04233 -0.03528,-0.01411 -0.110067,-0.01411 v -0.04798 l 0.357011,-0.05644 v 0.807155 q 0,0.105833 0.0014,0.163689 0.0028,0.05644 0.0085,0.08608 0.0028,0.01835 0.0085,0.02963 0.0056,0.01129 0.01693,0.01834 0.01129,0.0056 0.02963,0.0085 0.01976,0.0014 0.04939,0.0014 v 0.05503 l -0.268111,0.01552 z m -0.04374,-0.314677 q 0,-0.05362 -0.01129,-0.09878 -0.01129,-0.04657 -0.03387,-0.08184 -0.0254,-0.04092 -0.06491,-0.06209 -0.03951,-0.02117 -0.08467,-0.02117 -0.08325,0 -0.127,0.0762 -0.04374,0.0762 -0.04374,0.221544 0,0.146756 0.04374,0.225778 0.04375,0.07902 0.125589,0.07902 0.04657,0 0.0889,-0.02399 0.04233,-0.02399 0.06914,-0.06491 0.01975,-0.03104 0.02822,-0.0762 0.0099,-0.04657 0.0099,-0.118533 z"
         style="font-family:'Libre Baskerville';-inkscape-font-specification:'Libre Baskerville Bold';fill:#ffffff"
         id="path444" />
      <path
         d="m 23.089141,23.727257 q 0,0.05786 0.0028,0.09172 0.0042,0.03246 0.01552,0.0508 0.0127,0.01835 0.03669,0.02399 0.0254,0.0056 0.06773,0.0085 v 0.05644 h -0.444499 v -0.05644 q 0.04233,-0.0028 0.06773,-0.0085 0.0254,-0.0056 0.0381,-0.02258 0.0127,-0.01693 0.01552,-0.04798 0.0042,-0.03246 0.0042,-0.08608 v -0.579966 q 0,-0.08467 -0.0028,-0.132645 -0.0014,-0.04939 -0.0071,-0.07479 -0.0042,-0.01835 -0.0099,-0.02822 -0.0056,-0.01129 -0.01834,-0.01693 -0.01129,-0.0071 -0.03246,-0.0085 -0.01975,-0.0028 -0.0508,-0.0028 v -0.05221 l 0.314678,-0.05362 v 0.520699 h 0.0056 q 0.04375,-0.05785 0.09737,-0.08467 0.05503,-0.02681 0.131233,-0.02681 0.138289,0 0.214489,0.08467 0.03669,0.04233 0.05785,0.103011 0.02117,0.05927 0.02117,0.124178 v 0.218722 q 0,0.05927 0.0028,0.09313 0.0028,0.03246 0.01411,0.0508 0.0127,0.01693 0.03669,0.02258 0.02399,0.0056 0.06632,0.0085 v 0.05644 h -0.441677 v -0.05644 q 0.04233,-0.0014 0.06632,-0.0071 0.0254,-0.0071 0.0381,-0.02399 0.01411,-0.01693 0.01693,-0.04798 0.0042,-0.03246 0.0042,-0.08608 v -0.173567 q 0,-0.149577 -0.03246,-0.211666 -0.03246,-0.06209 -0.111478,-0.06209 -0.08467,0 -0.134055,0.06209 -0.02399,0.03246 -0.0381,0.08043 -0.0127,0.04798 -0.0127,0.107245 z"
         style="font-family:'Libre Baskerville';-inkscape-font-specification:'Libre Baskerville Bold';fill:#ffffff"
         id="path446" />
      <path
         d="m 24.237783,23.556513 q -0.118533,0.05362 -0.179211,0.100189 -0.05927,0.04516 -0.05927,0.09454 0,0.04092 0.02258,0.06491 0.02258,0.02399 0.05644,0.02399 0.03387,0 0.0635,-0.01129 0.02963,-0.0127 0.0508,-0.03245 0.02117,-0.01976 0.03246,-0.04657 0.0127,-0.02822 0.0127,-0.05927 z m 0,-0.07479 v -0.05927 q 0,-0.08184 -0.02963,-0.118533 -0.02822,-0.0381 -0.0889,-0.0381 -0.04092,0 -0.06209,0.02258 -0.02117,0.02117 -0.03951,0.07197 -0.0127,0.03528 -0.03669,0.05503 -0.02258,0.01975 -0.0635,0.01975 -0.03951,0 -0.06068,-0.02399 -0.02117,-0.02399 -0.02117,-0.06773 0,-0.06773 0.07338,-0.107244 0.07479,-0.03951 0.224367,-0.03951 0.158044,0 0.225777,0.05785 0.06773,0.05645 0.06773,0.1905 v 0.309033 q 0,0.119945 0.04798,0.119945 0.02681,0 0.04939,-0.01835 l 0.02117,0.04092 q -0.01976,0.03528 -0.06209,0.05645 -0.04092,0.01975 -0.09313,0.01975 -0.06491,0 -0.09878,-0.03951 -0.03387,-0.03951 -0.03387,-0.111477 h -0.0071 q -0.04092,0.07338 -0.105833,0.111477 -0.06491,0.0381 -0.148167,0.0381 -0.0889,0 -0.142522,-0.04939 -0.05362,-0.0508 -0.05362,-0.131233 0,-0.06209 0.05503,-0.115711 0.05503,-0.05503 0.183444,-0.107244 z"
         style="font-family:'Libre Baskerville';-inkscape-font-specification:'Libre Baskerville Bold';fill:#ffffff"
         id="path448" />
      <path
         d="m 24.926404,23.739957 q 0,0.05503 0.0042,0.08749 0.0056,0.03104 0.02117,0.04798 0.01552,0.01693 0.04516,0.02258 0.02963,0.0042 0.07902,0.0042 v 0.05644 h -0.47131 v -0.05644 q 0.04233,-0.0028 0.06773,-0.0085 0.0254,-0.0056 0.0381,-0.02258 0.0127,-0.01693 0.01552,-0.04798 0.0042,-0.03246 0.0042,-0.08608 v -0.172156 q 0,-0.08749 -0.0042,-0.139699 -0.0042,-0.05221 -0.01834,-0.08043 -0.01411,-0.02822 -0.04092,-0.03669 -0.0254,-0.0099 -0.06773,-0.0099 v -0.04939 l 0.282222,-0.05221 0.02258,0.162277 h 0.0056 q 0.0381,-0.07479 0.100189,-0.118533 0.06209,-0.04374 0.131234,-0.04374 0.05362,0 0.08749,0.02681 0.03387,0.02681 0.03387,0.06773 0,0.04516 -0.02681,0.0762 -0.0254,0.03104 -0.07056,0.03104 -0.02117,0 -0.0381,-0.0085 -0.01693,-0.0085 -0.03104,-0.01835 -0.0127,-0.01129 -0.02681,-0.01975 -0.0127,-0.0099 -0.02681,-0.0099 -0.02681,0 -0.0508,0.03528 -0.02399,0.03528 -0.03951,0.09454 -0.01129,0.04233 -0.01835,0.09596 -0.0071,0.05221 -0.0071,0.104422 z"
         style="font-family:'Libre Baskerville';-inkscape-font-specification:'Libre Baskerville Bold';fill:#ffffff"
         id="path450" />
      <path
         d="m 25.750491,23.556513 q -0.118533,0.05362 -0.179211,0.100189 -0.05927,0.04516 -0.05927,0.09454 0,0.04092 0.02258,0.06491 0.02258,0.02399 0.05644,0.02399 0.03387,0 0.0635,-0.01129 0.02963,-0.0127 0.0508,-0.03245 0.02117,-0.01976 0.03246,-0.04657 0.0127,-0.02822 0.0127,-0.05927 z m 0,-0.07479 v -0.05927 q 0,-0.08184 -0.02963,-0.118533 -0.02822,-0.0381 -0.0889,-0.0381 -0.04092,0 -0.06209,0.02258 -0.02117,0.02117 -0.03951,0.07197 -0.0127,0.03528 -0.03669,0.05503 -0.02258,0.01975 -0.0635,0.01975 -0.03951,0 -0.06068,-0.02399 -0.02117,-0.02399 -0.02117,-0.06773 0,-0.06773 0.07338,-0.107244 0.07479,-0.03951 0.224367,-0.03951 0.158044,0 0.225777,0.05785 0.06773,0.05645 0.06773,0.1905 v 0.309033 q 0,0.119945 0.04798,0.119945 0.02681,0 0.04939,-0.01835 l 0.02117,0.04092 q -0.01976,0.03528 -0.06209,0.05645 -0.04092,0.01975 -0.09313,0.01975 -0.06491,0 -0.09878,-0.03951 -0.03387,-0.03951 -0.03387,-0.111477 h -0.0071 q -0.04092,0.07338 -0.105833,0.111477 -0.06491,0.0381 -0.148167,0.0381 -0.0889,0 -0.142522,-0.04939 -0.05362,-0.0508 -0.05362,-0.131233 0,-0.06209 0.05503,-0.115711 0.05503,-0.05503 0.183444,-0.107244 z"
         style="font-family:'Libre Baskerville';-inkscape-font-specification:'Libre Baskerville Bold';fill:#ffffff"
         id="path452" />
      <path
         d="m 26.1837,23.392824 q -0.01552,-0.04092 -0.02963,-0.06491 -0.01411,-0.0254 -0.02963,-0.0381 -0.01411,-0.01411 -0.03246,-0.01834 -0.01693,-0.0042 -0.04092,-0.0042 v -0.05644 h 0.421922 v 0.05644 q -0.03528,0 -0.05644,0.0028 -0.01976,0.0028 -0.03104,0.0085 -0.0099,0.0056 -0.0127,0.01552 -0.0028,0.0085 -0.0028,0.01976 0,0.01834 0.0071,0.04233 0.0071,0.02399 0.01693,0.04798 l 0.134055,0.369711 h 0.0056 l 0.150988,-0.3683 q 0.0099,-0.02399 0.01552,-0.04233 0.0056,-0.01976 0.0056,-0.03528 0,-0.03104 -0.02117,-0.04516 -0.02117,-0.01411 -0.07479,-0.01552 v -0.05644 h 0.311855 v 0.05644 q -0.0381,0 -0.06632,0.01976 -0.02681,0.01975 -0.05645,0.08749 l -0.263877,0.59831 h -0.128411 z"
         style="font-family:'Libre Baskerville';-inkscape-font-specification:'Libre Baskerville Bold';fill:#ffffff"
         id="path454" />
      <path
         d="m 27.284364,23.727257 q 0,0.05645 0.0042,0.09031 0.0042,0.03387 0.01693,0.05221 0.0127,0.01835 0.03669,0.0254 0.02399,0.0056 0.06491,0.0071 v 0.05644 h -0.4445 v -0.05644 q 0.03951,-0.0014 0.0635,-0.0085 0.0254,-0.0085 0.0381,-0.0254 0.01411,-0.01834 0.01835,-0.04939 0.0056,-0.03245 0.0056,-0.08184 V 23.56358 q 0,-0.08184 -0.0028,-0.134055 -0.0028,-0.05362 -0.0071,-0.07338 -0.0071,-0.03528 -0.03245,-0.04657 -0.02399,-0.01129 -0.0889,-0.01129 v -0.04798 l 0.327377,-0.05362 z m -0.207433,-0.829733 q 0,-0.04657 0.03105,-0.07761 0.03245,-0.03245 0.07761,-0.03245 0.04657,0 0.07761,0.03245 0.03246,0.03104 0.03246,0.07761 0,0.04516 -0.03246,0.07761 -0.03104,0.03104 -0.07761,0.03104 -0.04516,0 -0.07761,-0.03104 -0.03105,-0.03246 -0.03105,-0.07761 z"
         style="font-family:'Libre Baskerville';-inkscape-font-specification:'Libre Baskerville Bold';fill:#ffffff"
         id="path456" />
      <path
         d="m 27.507317,23.868368 q 0,-0.04516 0.02963,-0.0762 0.03104,-0.03245 0.0762,-0.03245 0.04657,0 0.07761,0.03245 0.03105,0.03104 0.03105,0.0762 0,0.04375 -0.03105,0.07479 -0.03104,0.02963 -0.07761,0.02963 -0.04516,0 -0.0762,-0.02963 -0.02963,-0.03104 -0.02963,-0.07479 z"
         style="font-family:'Libre Baskerville';-inkscape-font-specification:'Libre Baskerville Bold';fill:#ffffff"
         id="path458" />
      <path
         d="m 28.260848,23.19668 q 0.08467,0 0.159455,0.02963 0.0762,0.02822 0.132645,0.07902 0.05785,0.0508 0.09031,0.121356 0.03387,0.06914 0.03387,0.1524 0,0.08608 -0.03387,0.158044 -0.03246,0.07197 -0.09031,0.124178 -0.05645,0.05221 -0.132645,0.08184 -0.07479,0.02963 -0.159455,0.02963 -0.08326,0 -0.158045,-0.02822 -0.07479,-0.02963 -0.131233,-0.08184 -0.05644,-0.05221 -0.0889,-0.124178 -0.03246,-0.07338 -0.03246,-0.159455 0,-0.08326 0.03246,-0.153811 0.03246,-0.07056 0.0889,-0.121356 0.05645,-0.0508 0.131233,-0.07902 0.07479,-0.02822 0.158045,-0.02822 z m 0,0.08184 q -0.04233,0 -0.07761,0.02258 -0.03528,0.02117 -0.06068,0.06068 -0.02399,0.03951 -0.0381,0.09596 -0.0127,0.05503 -0.0127,0.122767 0,0.07056 0.0127,0.127 0.01411,0.05644 0.0381,0.09596 0.0254,0.03951 0.05927,0.06209 0.03528,0.02117 0.07902,0.02117 0.04374,0 0.07902,-0.02117 0.03669,-0.02258 0.06209,-0.06209 0.0254,-0.04092 0.03951,-0.09737 0.01411,-0.05645 0.01411,-0.125589 0,-0.06773 -0.01411,-0.122767 -0.01411,-0.05503 -0.03951,-0.09454 -0.0254,-0.04092 -0.06209,-0.06209 -0.03528,-0.02258 -0.07902,-0.02258 z"
         style="font-family:'Libre Baskerville';-inkscape-font-specification:'Libre Baskerville Bold';fill:#ffffff"
         id="path460" />
      <path
         d="m 29.093402,23.739957 q 0,0.05503 0.0042,0.08749 0.0056,0.03104 0.02117,0.04798 0.01552,0.01693 0.04516,0.02258 0.02963,0.0042 0.07902,0.0042 v 0.05644 h -0.471311 v -0.05644 q 0.04233,-0.0028 0.06773,-0.0085 0.0254,-0.0056 0.0381,-0.02258 0.0127,-0.01693 0.01552,-0.04798 0.0042,-0.03246 0.0042,-0.08608 v -0.172156 q 0,-0.08749 -0.0042,-0.139699 -0.0042,-0.05221 -0.01835,-0.08043 -0.01411,-0.02822 -0.04092,-0.03669 -0.0254,-0.0099 -0.06773,-0.0099 v -0.04939 l 0.282222,-0.05221 0.02258,0.162277 h 0.0056 q 0.0381,-0.07479 0.100189,-0.118533 0.06209,-0.04374 0.131233,-0.04374 0.05362,0 0.08749,0.02681 0.03387,0.02681 0.03387,0.06773 0,0.04516 -0.02681,0.0762 -0.0254,0.03104 -0.07055,0.03104 -0.02117,0 -0.0381,-0.0085 -0.01693,-0.0085 -0.03105,-0.01835 -0.0127,-0.01129 -0.02681,-0.01975 -0.0127,-0.0099 -0.02681,-0.0099 -0.02681,0 -0.0508,0.03528 -0.02399,0.03528 -0.03951,0.09454 -0.01129,0.04233 -0.01834,0.09596 -0.0071,0.05221 -0.0071,0.104422 z"
         style="font-family:'Libre Baskerville';-inkscape-font-specification:'Libre Baskerville Bold';fill:#ffffff"
         id="path462" />
      <path
         d="m 29.753801,23.806279 q 0.0381,0.0028 0.06632,0.0056 0.02963,0.0028 0.05503,0.0071 0.02681,0.0028 0.05221,0.0071 0.02681,0.0028 0.05644,0.0071 0.110067,0.01552 0.172156,0.08326 0.0635,0.06632 0.0635,0.1651 0,0.119944 -0.09878,0.182033 -0.09878,0.06209 -0.290689,0.06209 -0.176388,0 -0.272344,-0.05221 -0.09454,-0.0508 -0.09454,-0.145345 0,-0.07338 0.0381,-0.111477 0.0381,-0.03669 0.09596,-0.03669 0.03669,0 0.07056,0.01411 0.03528,0.01552 0.05927,0.04374 -0.03669,0.0071 -0.06068,0.03246 -0.02258,0.02681 -0.02258,0.06209 0,0.05644 0.04939,0.08608 0.0508,0.03104 0.148166,0.03104 0.211667,0 0.211667,-0.134056 0,-0.04798 -0.03246,-0.08326 -0.03104,-0.03387 -0.09031,-0.04092 l -0.246944,-0.03387 q -0.156633,-0.02117 -0.156633,-0.1397 0,-0.05785 0.03669,-0.09454 0.0381,-0.03669 0.107244,-0.0508 v -0.0056 q -0.03246,-0.0127 -0.05927,-0.03528 -0.0254,-0.02258 -0.04515,-0.05221 -0.01976,-0.02963 -0.03105,-0.0635 -0.0099,-0.03528 -0.0099,-0.07197 0,-0.05221 0.02117,-0.09737 0.02258,-0.04657 0.06068,-0.07902 0.03951,-0.03245 0.09172,-0.0508 0.05362,-0.01975 0.115711,-0.01975 0.06068,0 0.118533,0.01834 0.05786,0.01835 0.09878,0.0508 0.03246,-0.01975 0.05645,-0.03245 0.02399,-0.01411 0.04374,-0.02117 0.02117,-0.0085 0.0381,-0.01129 0.01693,-0.0042 0.03387,-0.0042 0.05362,0 0.08608,0.02399 0.03387,0.02399 0.03387,0.0635 0,0.02963 -0.01834,0.04939 -0.01835,0.01835 -0.04798,0.01835 -0.02117,0 -0.03387,-0.0085 -0.0127,-0.0099 -0.0254,-0.02117 -0.01129,-0.0127 -0.02399,-0.02117 -0.0127,-0.0099 -0.03387,-0.0099 -0.02963,0 -0.05645,0.0381 0.01411,0.02399 0.01976,0.05221 0.0056,0.02681 0.0056,0.0635 0,0.05362 -0.01693,0.09878 -0.01693,0.04516 -0.05362,0.08043 -0.03528,0.03387 -0.09172,0.05786 -0.05645,0.02399 -0.136878,0.03245 -0.06773,0.0071 -0.09454,0.01835 -0.0254,0.01129 -0.0254,0.03387 0,0.03387 0.0635,0.03951 z m 0.06773,-0.172155 q 0.04516,0 0.07055,-0.04798 0.0254,-0.04798 0.0254,-0.134055 0,-0.08749 -0.0254,-0.134056 -0.0254,-0.04798 -0.07197,-0.04798 -0.04798,0 -0.0762,0.04798 -0.02822,0.04798 -0.02822,0.131233 0,0.08467 0.02822,0.135467 0.02963,0.04939 0.07761,0.04939 z"
         style="font-family:'Libre Baskerville';-inkscape-font-specification:'Libre Baskerville Bold';fill:#ffffff"
         id="path464" />
    </g>
  </g>
</svg>
